<?xml version="1.0" encoding="UTF-8" standalone="no"?>
<svg width="20px" height="21px" viewBox="0 0 20 21" version="1.1" xmlns="http://www.w3.org/2000/svg" xmlns:xlink="http://www.w3.org/1999/xlink">
    <!-- Generator: Sketch 41.1 (35376) - http://www.bohemiancoding.com/sketch -->
    <title>icon－fenxiang－default</title>
    <desc>Created with Sketch.</desc>
    <defs></defs>
    <g id="投票管理" stroke="none" stroke-width="1" fill="none" fill-rule="evenodd">
        <g id="1.0.7-PC_投票管理_查看详情" transform="translate(-785.000000, -9.000000)">
            <g id="详情" transform="translate(449.000000, 0.000000)">
                <g id="下载与收藏数量" transform="translate(336.000000, 9.000000)">
                    <g id="fenxiang">
                        <path d="M6.07361236,13.2552123 C6.01976279,13.548154 6.21469824,13.8294641 6.5091477,13.8833137 C6.54210363,13.8893448 6.57484417,13.8919296 6.60715392,13.8919296 C6.86390867,13.8919296 7.09180006,13.7097027 7.13983387,13.449717 C7.14392644,13.4271001 7.57386142,11.1576638 9.0702333,8.90158217 C9.94130397,7.58894502 10.9965402,6.54469413 12.2068631,5.79920067 C13.3622595,5.08644774 14.6680039,4.64337347 16.1016949,4.47450122 L14.3373676,6.28664699 C14.1292928,6.50053748 14.1344624,6.84215916 14.3496453,7.04958771 C14.4545442,7.1510403 14.5906759,7.2014435 14.7265923,7.2014435 C14.8683243,7.2014435 15.0094102,7.14673234 15.115817,7.03731001 L17.8470672,4.23196275 C17.8490058,4.22980876 17.8509444,4.22765478 17.8530984,4.2252854 C17.8558985,4.22270062 17.8584833,4.21968504 17.8612835,4.21666947 C17.8642991,4.2132231 17.8670993,4.20977672 17.8701148,4.20676115 C17.8705456,4.20633035 17.870761,4.20546876 17.8714072,4.20546876 C17.873992,4.20202239 17.8765768,4.19836061 17.8795924,4.19534504 C17.8823925,4.19189867 17.8854081,4.1880215 17.8879929,4.18457512 C17.8905777,4.18112875 17.8929471,4.17768238 17.8957472,4.17423601 C17.8985474,4.17035884 17.901563,4.16626627 17.9043632,4.1619583 C17.9063017,4.15937352 17.9082403,4.15635795 17.9103943,4.15334237 C17.9123329,4.15075759 17.9140561,4.14817281 17.9157793,4.14515724 C17.9164255,4.14429564 17.9170717,4.14300326 17.9179333,4.14214166 C17.9183641,4.14128007 17.9187948,4.14041848 17.9192256,4.13934148 C17.9209488,4.1367567 17.9224566,4.13417193 17.9241798,4.13158715 C17.92698,4.12641759 17.9297802,4.12210962 17.9323649,4.11694006 C17.9338727,4.11435528 17.9353805,4.1117705 17.9371037,4.10897033 C17.9375345,4.10767794 17.9381807,4.10638555 17.9386115,4.10552395 C17.9405501,4.10164678 17.9427041,4.09776962 17.9446426,4.09389245 C17.9461504,4.09087687 17.9476582,4.0874305 17.9493814,4.08441492 C17.9515354,4.07967616 17.953474,4.0751528 17.9554126,4.07041403 C17.9571357,4.06696766 17.9584281,4.06309049 17.9599359,4.05964412 C17.9618745,4.05533615 17.9635977,4.05102819 17.9653209,4.04650482 C17.9668287,4.04219686 17.9683365,4.03831969 17.9698442,4.03401172 L17.9737214,4.02238022 C17.9752292,4.01785685 17.9765216,4.01311809 17.9780294,4.00837933 C17.9791064,4.00450216 17.979968,4.00105579 17.981045,3.99717862 C17.9825527,3.99287065 17.9836297,3.98748569 17.9847067,3.98231613 C17.9853529,3.97973136 17.9862145,3.97671578 17.9868607,3.9737002 C17.9870761,3.97283861 17.9872915,3.97197702 17.9875069,3.97111542 C17.9885839,3.96637666 17.9894455,3.9614225 17.9903071,3.95711454 C17.9907379,3.95409896 17.9913841,3.95151418 17.9918149,3.9489294 C17.9922457,3.94677542 17.9924611,3.94462143 17.9928919,3.94246745 C17.9933227,3.93902108 17.9939688,3.93514391 17.9943996,3.93105134 C17.9950458,3.92889736 17.9954766,3.92631258 17.9954766,3.9241586 C17.9959074,3.92071223 17.9965536,3.91726585 17.9969844,3.91381948 C17.9971998,3.9116655 17.9971998,3.90951151 17.9976306,3.90778833 C17.997846,3.90541895 17.997846,3.90412656 17.9980614,3.90197257 C17.9980614,3.90068018 17.9982768,3.89981859 17.9982768,3.898957 C17.9987076,3.89421824 17.998923,3.88947947 17.9993538,3.88517151 L17.9993538,3.88258673 C17.9995692,3.88000195 17.9995692,3.87677098 17.9997846,3.8737554 C18,3.86772425 18,3.86255469 18,3.85652354 L18,3.85609274 C18,3.84683061 17.9997846,3.83821468 17.9993538,3.82959875 C17.9993538,3.82873716 17.9993538,3.82787556 17.9991384,3.82744477 C17.9991384,3.82572158 17.9991384,3.8239984 17.998923,3.82270601 L17.998923,3.82227521 C17.9984922,3.81559786 17.997846,3.80956671 17.9971998,3.80353556 C17.9969844,3.80181237 17.996769,3.80008919 17.9965536,3.798366 C17.9963382,3.79707361 17.9963382,3.79621202 17.9963382,3.79535042 C17.995692,3.78953467 17.9950458,3.78436511 17.9941842,3.77833396 C17.9937534,3.77617998 17.9935381,3.77402599 17.9931073,3.77144121 C17.9928919,3.77057962 17.9928919,3.76971803 17.9926765,3.76842564 C17.9918149,3.76368688 17.9909533,3.75916351 17.9900917,3.75442475 C17.9894455,3.75140917 17.9887993,3.7479628 17.9883685,3.74537802 C17.9883685,3.74494722 17.9881531,3.74451643 17.9879377,3.74408563 C17.9877223,3.74279324 17.9875069,3.74193165 17.9872915,3.74107006 C17.9866453,3.73762368 17.9857837,3.73417731 17.9849221,3.73051554 C17.9836297,3.72491518 17.9821219,3.71931483 17.9806142,3.71371447 C17.979968,3.71156049 17.9795372,3.70940651 17.978891,3.70725252 C17.9769524,3.70057518 17.9750138,3.69411323 17.9728598,3.68765128 C17.972429,3.68635889 17.9719982,3.6850665 17.9715674,3.68377411 C17.9700596,3.67946615 17.9685519,3.67451199 17.9668287,3.66977322 C17.9666133,3.66934243 17.9663979,3.66891163 17.9661825,3.66848083 C17.9655363,3.66632685 17.9644593,3.66460366 17.9638131,3.66244968 C17.9633823,3.66158809 17.9633823,3.66115729 17.9627361,3.6602957 C17.9610129,3.65555694 17.9590743,3.65060278 17.9571357,3.64586401 C17.9560587,3.64327923 17.9547664,3.64026366 17.953474,3.63767888 C17.9511046,3.63250932 17.9489506,3.62777056 17.9467966,3.6230318 L17.9465812,3.622601 C17.9414117,3.61161569 17.9358113,3.60170737 17.9299956,3.59115285 C17.925903,3.58382931 17.921595,3.57693656 17.9170717,3.56961302 C17.9166409,3.56918222 17.9162101,3.56832063 17.9157793,3.56745904 C17.9131945,3.56358187 17.9106097,3.5590585 17.9080249,3.55518134 L17.9073787,3.55431974 C17.9060863,3.55259656 17.9045786,3.55087337 17.9030708,3.54828859 C17.9017784,3.5465654 17.9000552,3.54441142 17.8985474,3.54225744 C17.8974704,3.54053425 17.896178,3.53924186 17.895101,3.53751868 C17.894024,3.53622629 17.8929471,3.5345031 17.8918701,3.53321071 C17.8907931,3.53127213 17.8895007,3.52997974 17.8884237,3.52825655 C17.8856235,3.52481018 17.8826079,3.52093301 17.8798078,3.51748664 C17.8780846,3.51533265 17.8767922,3.51360947 17.8748536,3.51188628 C17.8742074,3.51102469 17.8733458,3.5097323 17.8724842,3.50843991 C17.8688224,3.50456274 17.8649453,3.50003937 17.8612835,3.49573141 C17.8602065,3.49443902 17.8593449,3.49357743 17.8582679,3.49271583 C17.8530984,3.48668468 17.8477134,3.48151512 17.8421131,3.47569937 C17.8416823,3.47526857 17.8412515,3.47483778 17.8406053,3.47440698 C17.8350049,3.46837583 17.8291892,3.46277547 17.8229426,3.45760591 C17.8227272,3.45717512 17.8225118,3.45717512 17.8222964,3.45674432 C17.8160499,3.45114396 17.8098033,3.44575901 17.8033414,3.44058945 C17.803126,3.44015865 17.8026952,3.43972786 17.8024798,3.43972786 C17.7964486,3.4345583 17.7902021,3.42981953 17.7837401,3.42508077 C17.7828785,3.42464998 17.7820169,3.42378838 17.7811553,3.42335759 C17.775555,3.41904962 17.7697392,3.41495705 17.7639235,3.41107988 C17.7622003,3.40978749 17.7602617,3.4084951 17.7587539,3.40763351 C17.7557383,3.40547953 17.7529382,3.40332554 17.7499226,3.40160236 C17.7477686,3.39987917 17.7451838,3.39901758 17.7428144,3.39729439 C17.7402297,3.39557121 17.7376449,3.39384802 17.7350601,3.39255563 C17.7326907,3.39126324 17.7301059,3.38954005 17.727952,3.38824766 C17.7251518,3.38673988 17.722567,3.38544749 17.7201976,3.3841551 C17.7169667,3.38243191 17.7139511,3.38070872 17.7107201,3.37898554 C17.7061967,3.37640076 17.7016734,3.37424678 17.6969346,3.37209279 C17.6934882,3.37036961 17.6900419,3.36864642 17.6865955,3.36692323 C17.6822875,3.36520005 17.6779796,3.36304607 17.6736716,3.36132288 C17.669579,3.35959969 17.6654865,3.35787651 17.6613939,3.35636872 C17.6577321,3.35464553 17.6536396,3.35292235 17.649547,3.35162996 C17.645239,3.34990677 17.6405003,3.34818358 17.6359769,3.3464604 C17.6323151,3.34516801 17.6286534,3.34387562 17.625207,3.34301403 C17.6228376,3.34215243 17.6204682,3.34172164 17.6180988,3.34086004 L13.6399079,2.0275767 C13.3557976,1.93366305 13.0490704,2.08745742 12.9549414,2.36984457 C12.8608123,2.65287792 13.0148221,2.95809729 13.298717,3.05179554 L14.8989109,3.57995214 C13.7228363,3.83304512 12.6314131,4.26793426 11.6360577,4.88160397 C10.2915416,5.71067197 9.12365208,6.8628374 8.16577591,8.3068675 C6.54878098,10.7447453 6.09235201,13.1541905 6.07361236,13.2552123 M17.4459956,10.0933809 C17.146592,10.0933809 16.9040535,10.3350578 16.9040535,10.633169 L16.9040535,15.7340158 C16.9040535,16.3883958 16.3692196,16.9210757 15.711824,16.9210757 L4.27611368,16.9210757 C3.61871811,16.9210757 3.08388417,16.3883958 3.08388417,15.7340158 L3.08388417,5.02312065 C3.08388417,4.36852526 3.61871811,3.8360607 4.27611368,3.8360607 L8.00379639,3.8360607 C8.30298461,3.8360607 8.54552308,3.59438382 8.54552308,3.296488 C8.54552308,2.99837677 8.30298461,2.75669989 8.00379639,2.75669989 L4.27611368,2.75669989 C3.02120327,2.75669989 2,3.7731644 2,5.02312065 L2,15.7340158 C2,16.9835412 3.02120327,18.0000057 4.27611368,18.0000057 L15.711824,18.0000057 C16.9669498,18.0000057 17.9879377,16.9835412 17.9879377,15.7340158 L17.9879377,10.633169 C17.9879377,10.3350578 17.7453992,10.0933809 17.4459956,10.0933809" id="Fill-1" fill="#999999"></path>
                        <rect id="Rectangle-754" x="0" y="2.85940246e-06" width="20" height="20"></rect>
                    </g>
                </g>
            </g>
        </g>
    </g>
</svg>