<?xml version="1.0" encoding="UTF-8"?>
<svg width="25px" height="25px" viewBox="0 0 25 25" version="1.1" xmlns="http://www.w3.org/2000/svg" xmlns:xlink="http://www.w3.org/1999/xlink">
    <!-- Generator: Sketch 41.2 (35397) - http://www.bohemiancoding.com/sketch -->
    <title>icon－tiaozhuan copy 9</title>
    <desc>Created with Sketch.</desc>
    <defs></defs>
    <g id="Page-1" stroke="none" stroke-width="1" fill="none" fill-rule="evenodd">
        <g id="2_03_合同信息-全局" transform="translate(-833.000000, -372.000000)">
            <g id="翻页跳转" transform="translate(534.000000, 369.000000)">
                <g id="向后" transform="translate(296.000000, 0.000000)">
                    <g id="跳转" transform="translate(3.000000, 3.000000)">
                        <path d="M6.26837378,5.218159 C5.97818689,4.92728033 5.5077378,4.92728033 5.21764017,5.218159 C4.92745328,5.50903766 4.92745328,5.98071409 5.21764017,6.27150349 L11.9250098,12.9923068 L5.21764017,19.7131102 C4.92745328,20.0039888 4.92745328,20.4755537 5.21764017,20.7665439 C5.5077378,21.0574226 5.97818689,21.0574226 6.26837378,20.7665439 L13.5014672,13.5190572 C13.7916541,13.2280893 13.7916541,12.7565021 13.5014672,12.4655342 L6.26837378,5.218159 Z" id="iconfont-icon51" fill="#546576"></path>
                        <path d="M13.2683738,5.218159 C12.9781869,4.92728033 12.5077378,4.92728033 12.2176402,5.218159 C11.9274533,5.50903766 11.9274533,5.98071409 12.2176402,6.27150349 L18.9250098,12.9923068 L12.2176402,19.7131102 C11.9274533,20.0039888 11.9274533,20.4755537 12.2176402,20.7665439 C12.5077378,21.0574226 12.9781869,21.0574226 13.2683738,20.7665439 L20.5014672,13.5190572 C20.7916541,13.2280893 20.7916541,12.7565021 20.5014672,12.4655342 L13.2683738,5.218159 Z" id="iconfont-icon51" fill="#546576"></path>
                        <rect id="Rectangle-763" x="0" y="0" width="25" height="25"></rect>
                    </g>
                </g>
            </g>
        </g>
    </g>
</svg>